<svg width="32" height="32" viewBox="0 0 32 32" fill="none" xmlns="http://www.w3.org/2000/svg">
<path d="M23.9974 17.3307H17.3307V23.9974C17.3307 24.351 17.1903 24.6902 16.9402 24.9402C16.6902 25.1903 16.351 25.3307 15.9974 25.3307C15.6438 25.3307 15.3046 25.1903 15.0546 24.9402C14.8045 24.6902 14.6641 24.351 14.6641 23.9974V17.3307H7.9974C7.64377 17.3307 7.30464 17.1903 7.05459 16.9402C6.80454 16.6902 6.66406 16.351 6.66406 15.9974C6.66406 15.6438 6.80454 15.3046 7.05459 15.0546C7.30464 14.8045 7.64377 14.6641 7.9974 14.6641H14.6641V7.9974C14.6641 7.64377 14.8045 7.30463 15.0546 7.05459C15.3046 6.80454 15.6438 6.66406 15.9974 6.66406C16.351 6.66406 16.6902 6.80454 16.9402 7.05459C17.1903 7.30463 17.3307 7.64377 17.3307 7.9974V14.6641H23.9974C24.351 14.6641 24.6902 14.8045 24.9402 15.0546C25.1903 15.3046 25.3307 15.6438 25.3307 15.9974C25.3307 16.351 25.1903 16.6902 24.9402 16.9402C24.6902 17.1903 24.351 17.3307 23.9974 17.3307Z" fill="#FE4D00"/>
</svg>
