<svg width="24" height="24" viewBox="0 0 24 24" fill="none" xmlns="http://www.w3.org/2000/svg">
<g clip-path="url(#clip0_4026_15343)">
<path d="M5.637 10.587C5.31197 10.262 5.05415 9.87612 4.87825 9.45146C4.70235 9.02679 4.61182 8.57165 4.61182 8.112C4.61182 7.65235 4.70235 7.1972 4.87825 6.77253C5.05415 6.34787 5.31197 5.96202 5.637 5.637C5.96202 5.31197 6.34787 5.05415 6.77253 4.87825C7.1972 4.70235 7.65235 4.61182 8.112 4.61182C8.57165 4.61182 9.02679 4.70235 9.45146 4.87825C9.87612 5.05415 10.262 5.31197 10.587 5.637L18.365 13.415C19.0214 14.0714 19.3902 14.9617 19.3902 15.89C19.3902 16.8183 19.0214 17.7086 18.365 18.365C18.04 18.69 17.6541 18.9478 17.2295 19.1237C16.8048 19.2996 16.3496 19.3902 15.89 19.3902C14.9617 19.3902 14.0714 19.0214 13.415 18.365L9.34899 14.299C9.23291 14.1829 9.14082 14.0451 9.07799 13.8934C9.01517 13.7417 8.98283 13.5792 8.98283 13.415C8.98283 13.2508 9.01517 13.0883 9.07799 12.9366C9.14082 12.7849 9.23291 12.6471 9.34899 12.531C9.46508 12.4149 9.6029 12.3228 9.75458 12.26C9.90626 12.1972 10.0688 12.1648 10.233 12.1648C10.3972 12.1648 10.5597 12.1972 10.7114 12.26C10.8631 12.3228 11.0009 12.4149 11.117 12.531L14.829 16.244C15.0166 16.4316 15.2711 16.5371 15.5365 16.5371C15.8019 16.5371 16.0564 16.4316 16.244 16.244C16.4316 16.0564 16.5371 15.8019 16.5371 15.5365C16.5371 15.2711 16.4316 15.0166 16.244 14.829L12.531 11.117C11.9196 10.5168 11.096 10.1822 10.2392 10.1861C9.38241 10.1901 8.56185 10.5322 7.95602 11.138C7.35018 11.7439 7.00808 12.5644 7.00415 13.4212C7.00021 14.278 7.33475 15.1016 7.935 15.713L12.001 19.779C12.5105 20.2953 13.117 20.7058 13.7858 20.9867C14.4545 21.2677 15.1723 21.4136 15.8976 21.416C16.623 21.4185 17.3417 21.2774 18.0123 21.0009C18.6829 20.7244 19.2922 20.3181 19.8051 19.8051C20.3181 19.2922 20.7244 18.6829 21.0009 18.0123C21.2774 17.3417 21.4185 16.623 21.416 15.8976C21.4136 15.1723 21.2677 14.4545 20.9867 13.7858C20.7058 13.117 20.2953 12.5105 19.779 12.001L12.001 4.223C11.4915 3.70666 10.885 3.29619 10.2162 3.01524C9.54745 2.73429 8.82973 2.5884 8.10436 2.58597C7.379 2.58354 6.66031 2.72462 5.98969 3.00108C5.31907 3.27755 4.70977 3.68394 4.19685 4.19685C3.68394 4.70977 3.27755 5.31907 3.00108 5.98969C2.72462 6.66031 2.58354 7.379 2.58597 8.10436C2.5884 8.82973 2.73429 9.54745 3.01524 10.2162C3.29619 10.885 3.70666 11.4915 4.223 12.001L4.57599 12.354C4.66817 12.4496 4.77847 12.5258 4.90043 12.5783C5.0224 12.6308 5.1536 12.6585 5.28637 12.6597C5.41915 12.661 5.55085 12.6358 5.67378 12.5856C5.79671 12.5354 5.90841 12.4612 6.00237 12.3674C6.09633 12.2736 6.17066 12.162 6.22103 12.0391C6.2714 11.9162 6.29679 11.7846 6.29573 11.6518C6.29467 11.519 6.26718 11.3878 6.21486 11.2657C6.16254 11.1437 6.08644 11.0333 5.99099 10.941L5.637 10.587Z" fill="black"/>
</g>
<defs>
<clipPath id="clip0_4026_15343">
<rect width="24" height="24" fill="white"/>
</clipPath>
</defs>
</svg>
