<svg width="48" height="48" viewBox="0 0 48 48" fill="none" xmlns="http://www.w3.org/2000/svg">
<path d="M11.1447 15.7749C10.5717 12.0009 13.2327 8.6109 17.2977 7.3689C18.0191 7.14984 18.7968 7.21331 19.4731 7.54645C20.1494 7.8796 20.6737 8.45747 20.9397 9.1629L22.2447 12.6429C22.4548 13.2027 22.4927 13.8126 22.3538 14.3942C22.2148 14.9757 21.9052 15.5025 21.4647 15.9069L17.5827 19.4619C17.3911 19.6373 17.2483 19.8595 17.1684 20.1067C17.0885 20.3538 17.0741 20.6175 17.1267 20.8719L17.1627 21.0279L17.2557 21.4179C17.7397 23.3124 18.4752 25.1336 19.4427 26.8329C20.499 28.6371 21.8083 30.2808 23.3307 31.7139L23.4507 31.8219C23.6445 31.9939 23.8795 32.1128 24.133 32.167C24.3864 32.2211 24.6495 32.2087 24.8967 32.1309L29.9157 30.5499C30.4861 30.3708 31.097 30.3662 31.67 30.5367C32.243 30.7073 32.752 31.0451 33.1317 31.5069L35.5077 34.3899C36.4977 35.5899 36.3777 37.3539 35.2407 38.4129C32.1297 41.3139 27.8517 41.9079 24.8757 39.5169C21.2262 36.5759 18.1507 32.9869 15.8037 28.9299C13.4337 24.8783 11.8548 20.4148 11.1447 15.7749ZM20.2707 21.0699L23.4867 18.1179C24.3682 17.3095 24.988 16.2561 25.2665 15.0929C25.545 13.9297 25.4695 12.7099 25.0497 11.5899L23.7477 8.1099C23.2135 6.69022 22.159 5.52708 20.7983 4.85677C19.4376 4.18645 17.8728 4.05921 16.4217 4.5009C11.3727 6.0459 7.31968 10.5729 8.17768 16.2279C8.77768 20.1759 10.1607 25.1979 13.2117 30.4419C15.744 34.8163 19.0615 38.686 22.9977 41.8569C27.4617 45.4419 33.4197 44.2179 37.2897 40.6119C38.397 39.5809 39.0692 38.1661 39.169 36.6564C39.2688 35.1466 38.7887 33.6557 37.8267 32.4879L35.4507 29.6019C34.6906 28.6793 33.6723 28.0048 32.5263 27.6649C31.3803 27.3249 30.1589 27.335 29.0187 27.6939L24.8517 29.0049C23.7757 27.8957 22.8333 26.6643 22.0437 25.3359C21.2817 23.9926 20.6873 22.5609 20.2737 21.0729" fill="#FE4D00"/>
</svg>
