<svg width="24" height="24" viewBox="0 0 24 24" fill="none" xmlns="http://www.w3.org/2000/svg">
<path d="M1 15.9992V15.4242C1 14.4409 1.475 13.7909 2.425 13.4742C3.375 13.1576 4.23333 12.9992 5 12.9992C5.76667 12.9992 6.625 13.1576 7.575 13.4742C8.525 13.7909 9 14.4409 9 15.4242V15.9992H1ZM5 11.9992C4.45 11.9992 3.97933 11.8036 3.588 11.4122C3.19667 11.0209 3.00067 10.5499 3 9.99922C2.99933 9.44855 3.19533 8.97789 3.588 8.58722C3.98067 8.19655 4.45133 8.00055 5 7.99922C5.54867 7.99789 6.01967 8.19389 6.413 8.58722C6.80633 8.98055 7.002 9.45122 7 9.99922C6.998 10.5472 6.80233 11.0182 6.413 11.4122C6.02367 11.8062 5.55267 12.0019 5 11.9992ZM9.675 13.4242C9.475 13.4242 9.3 13.3492 9.15 13.1992C9 13.0492 8.925 12.8742 8.925 12.6742C8.925 12.5742 9 12.3992 9.15 12.1492C9.28333 11.9826 9.375 11.7992 9.425 11.5992C9.475 11.3992 9.5 11.1992 9.5 10.9992C9.5 10.7992 9.475 10.6036 9.425 10.4122C9.375 10.2209 9.28333 10.0416 9.15 9.87422C9.08333 9.79089 9.02933 9.70355 8.988 9.61222C8.94667 9.52089 8.92567 9.42489 8.925 9.32422C8.925 9.10755 8.996 8.92855 9.138 8.78722C9.28 8.64589 9.459 8.57489 9.675 8.57422C9.80833 8.57422 9.92933 8.61189 10.038 8.68722C10.1467 8.76255 10.2423 8.84989 10.325 8.94922C10.5417 9.24922 10.7083 9.57422 10.825 9.92422C10.9417 10.2742 11 10.6326 11 10.9992C11 11.3659 10.9417 11.7202 10.825 12.0622C10.7083 12.4042 10.5417 12.7332 10.325 13.0492C10.2417 13.1492 10.146 13.2369 10.038 13.3122C9.93 13.3876 9.809 13.4249 9.675 13.4242ZM11.8 15.5742C11.5833 15.5742 11.4 15.5036 11.25 15.3622C11.1 15.2209 11.025 15.0416 11.025 14.8242C11.025 14.7242 11.046 14.6286 11.088 14.5372C11.13 14.4459 11.184 14.3582 11.25 14.2742C11.6667 13.8076 11.9793 13.2909 12.188 12.7242C12.3967 12.1576 12.5007 11.5826 12.5 10.9992C12.4993 10.4159 12.3953 9.84489 12.188 9.28622C11.9807 8.72755 11.668 8.21522 11.25 7.74922C11.1833 7.66589 11.1293 7.58255 11.088 7.49922C11.0467 7.41589 11.0257 7.32422 11.025 7.22422C11.025 7.00755 11.096 6.82422 11.238 6.67422C11.38 6.52422 11.559 6.44922 11.775 6.44922C11.8917 6.44922 12 6.47422 12.1 6.52422C12.2 6.57422 12.2917 6.64089 12.375 6.72422C12.925 7.34089 13.3333 8.01589 13.6 8.74922C13.8667 9.48255 14 10.2326 14 10.9992C14 11.7659 13.8623 12.5202 13.587 13.2622C13.3117 14.0042 12.9077 14.6832 12.375 15.2992C12.2917 15.3826 12.2043 15.4492 12.113 15.4992C12.0217 15.5492 11.9173 15.5742 11.8 15.5742ZM15 15.9992V15.4242C15 14.4409 15.475 13.7909 16.425 13.4742C17.375 13.1576 18.2333 12.9992 19 12.9992C19.7667 12.9992 20.625 13.1576 21.575 13.4742C22.525 13.7909 23 14.4409 23 15.4242V15.9992H15ZM19 11.9992C18.45 11.9992 17.9793 11.8036 17.588 11.4122C17.1967 11.0209 17.0007 10.5499 17 9.99922C16.9993 9.44855 17.1953 8.97789 17.588 8.58722C17.9807 8.19655 18.4513 8.00055 19 7.99922C19.5487 7.99789 20.0197 8.19389 20.413 8.58722C20.8063 8.98055 21.002 9.45122 21 9.99922C20.998 10.5472 20.8023 11.0182 20.413 11.4122C20.0237 11.8062 19.5527 12.0019 19 11.9992Z" fill="#FE4D00"/>
</svg>
