<svg width="24" height="24" viewBox="0 0 24 24" fill="none" xmlns="http://www.w3.org/2000/svg">
<path d="M17.9968 4H5.99676C4.89176 4 3.97076 4.91 4.24376 5.98C4.53439 7.11389 5.06976 8.1704 5.81228 9.07531C6.55479 9.98021 7.48643 10.7116 8.54176 11.218C9.36476 11.612 9.99676 12.386 9.99676 13.298V19.382C9.99685 19.5524 10.0405 19.7199 10.1235 19.8687C10.2065 20.0175 10.3262 20.1426 10.4712 20.2322C10.6161 20.3218 10.7815 20.3728 10.9518 20.3805C11.122 20.3881 11.2913 20.3522 11.4438 20.276L13.4438 19.276C13.6098 19.193 13.7495 19.0654 13.8472 18.9075C13.9449 18.7496 13.9967 18.5677 13.9968 18.382V13.298C13.9968 12.386 14.6288 11.612 15.4508 11.218C16.5065 10.7119 17.4386 9.98062 18.1814 9.0757C18.9243 8.17077 19.46 7.11411 19.7508 5.98C20.0218 4.91 19.0998 4 17.9968 4Z" stroke="#FE4D00"/>
</svg>
