<svg width="24" height="24" viewBox="0 0 24 24" fill="none" xmlns="http://www.w3.org/2000/svg">
<path fill-rule="evenodd" clip-rule="evenodd" d="M6.76758 12.6663C4.34563 8.875 7.03696 3.875 11.5003 3.875C15.9636 3.875 18.6549 8.875 16.2329 12.6663L13.4675 17H9.53305L6.76758 12.6663ZM7.7932 17.73L5.21061 13.6838C1.99165 8.64375 5.56896 2 11.5003 2C17.4316 2 21.0076 8.64375 17.7899 13.6838L15.2073 17.73V19.5C15.2073 20.163 14.9469 20.7989 14.4835 21.2678C14.02 21.7366 13.3914 22 12.736 22H10.2646C9.60913 22 8.98052 21.7366 8.51705 21.2678C8.05358 20.7989 7.7932 20.163 7.7932 19.5V17.73ZM9.64673 18.875V19.5C9.64673 19.6658 9.71183 19.8247 9.82769 19.9419C9.94356 20.0592 10.1007 20.125 10.2646 20.125H12.736C12.8998 20.125 13.057 20.0592 13.1728 19.9419C13.2887 19.8247 13.3538 19.6658 13.3538 19.5V18.875H9.64673Z" fill="#FE4D00"/>
</svg>
