<svg width="23" height="24" viewBox="0 0 23 24" fill="none" xmlns="http://www.w3.org/2000/svg">
<path d="M19.4195 3.67106C19.2388 3.48322 19.0121 3.35118 18.7643 3.28943C18.5166 3.22768 18.2574 3.23863 18.0152 3.32106L4.03828 8.20106C3.77907 8.28703 3.55001 8.45149 3.38003 8.67365C3.21006 8.89581 3.10679 9.16572 3.08328 9.44928C3.05977 9.73284 3.11706 10.0173 3.24793 10.2668C3.3788 10.5163 3.57736 10.7196 3.81855 10.8511L9.61757 13.8511L12.4836 19.9411C12.5988 20.1794 12.7751 20.3796 12.9928 20.5191C13.2104 20.6586 13.4608 20.732 13.7161 20.7311H13.8116C14.0849 20.71 14.3459 20.6034 14.5605 20.425C14.7752 20.2467 14.9337 20.0049 15.0153 19.7311L19.7444 5.14106C19.8288 4.88899 19.8431 4.617 19.7856 4.35675C19.7281 4.09651 19.6011 3.85871 19.4195 3.67106ZM4.63061 9.58106L16.8305 5.32106L10.057 12.4111L4.63061 9.58106ZM13.7829 19.1511L11.0697 13.4711L17.8432 6.38106L13.7829 19.1511Z" fill="#FE4D00"/>
</svg>
