<svg width="24" height="24" viewBox="0 0 24 24" fill="none" xmlns="http://www.w3.org/2000/svg">
<path d="M6.29634 4.293C6.48386 4.10553 6.73817 4.00021 7.00334 4.00021C7.2685 4.00021 7.52281 4.10553 7.71034 4.293L11.7103 8.293C11.8925 8.4816 11.9933 8.7342 11.991 8.9964C11.9887 9.2586 11.8836 9.50941 11.6982 9.69482C11.5127 9.88023 11.2619 9.9854 10.9997 9.98767C10.7375 9.98995 10.4849 9.88916 10.2963 9.707L8.00334 7.414V19C8.00334 19.2652 7.89798 19.5196 7.71044 19.7071C7.52291 19.8946 7.26855 20 7.00334 20C6.73812 20 6.48377 19.8946 6.29623 19.7071C6.10869 19.5196 6.00334 19.2652 6.00334 19V7.414L3.71034 9.707C3.52173 9.88916 3.26913 9.98995 3.00694 9.98767C2.74474 9.9854 2.49393 9.88023 2.30852 9.69482C2.12311 9.50941 2.01794 9.2586 2.01566 8.9964C2.01338 8.7342 2.11418 8.4816 2.29634 8.293L6.29634 4.293ZM16.0033 16.586V5C16.0033 4.73478 16.1087 4.48043 16.2962 4.29289C16.4838 4.10536 16.7381 4 17.0033 4C17.2686 4 17.5229 4.10536 17.7104 4.29289C17.898 4.48043 18.0033 4.73478 18.0033 5V16.586L20.2963 14.293C20.4849 14.1108 20.7375 14.01 20.9997 14.0123C21.2619 14.0146 21.5127 14.1198 21.6982 14.3052C21.8836 14.4906 21.9887 14.7414 21.991 15.0036C21.9933 15.2658 21.8925 15.5184 21.7103 15.707L17.7103 19.707C17.5228 19.8945 17.2685 19.9998 17.0033 19.9998C16.7382 19.9998 16.4839 19.8945 16.2963 19.707L12.2963 15.707C12.1142 15.5184 12.0134 15.2658 12.0157 15.0036C12.0179 14.7414 12.1231 14.4906 12.3085 14.3052C12.4939 14.1198 12.7447 14.0146 13.0069 14.0123C13.2691 14.01 13.5217 14.1108 13.7103 14.293L16.0033 16.586Z" fill="#FE4D00"/>
</svg>
