<svg width="24" height="24" viewBox="0 0 24 24" fill="none" xmlns="http://www.w3.org/2000/svg">
<path d="M3 8V12.172C3.00011 12.7024 3.2109 13.211 3.586 13.586L9.296 19.296C9.74795 19.7479 10.3609 20.0017 11 20.0017C11.6391 20.0017 12.252 19.7479 12.704 19.296L16.296 15.704C16.7479 15.252 17.0017 14.6391 17.0017 14C17.0017 13.3609 16.7479 12.748 16.296 12.296L10.586 6.586C10.211 6.2109 9.70239 6.00011 9.172 6H5C4.46957 6 3.96086 6.21071 3.58579 6.58579C3.21071 6.96086 3 7.46957 3 8Z" stroke="black" stroke-width="2" stroke-linecap="round" stroke-linejoin="round"/>
<path d="M18.0022 19L19.5942 17.408C20.498 16.5041 21.0057 15.2782 21.0057 14C21.0057 12.7218 20.498 11.4959 19.5942 10.592L15.0022 6M7.00219 10H6.99219" stroke="black" stroke-width="2" stroke-linecap="round" stroke-linejoin="round"/>
</svg>
