<svg width="24" height="24" viewBox="0 0 24 24" fill="none" xmlns="http://www.w3.org/2000/svg">
<g clip-path="url(#clip0_3721_6784)">
<path d="M19.5293 22.6657H4.47594C4.32711 22.6665 4.17956 22.6381 4.04172 22.5819C3.90388 22.5258 3.77845 22.4431 3.67259 22.3384C3.56673 22.2338 3.48252 22.1094 3.42475 21.9722C3.36699 21.835 3.33681 21.6878 3.33594 21.539V4.45899C3.33989 4.29408 3.37878 4.13188 3.45003 3.98309C3.52128 3.83431 3.62327 3.70233 3.74927 3.59586C3.87527 3.48938 4.02242 3.41084 4.18101 3.36542C4.33959 3.31999 4.50601 3.30871 4.66927 3.33233H6.0026V4.66566H4.66927V21.3323H19.3359V4.66566H18.0026V3.33233H19.5026C19.6537 3.32788 19.8041 3.35369 19.945 3.40823C20.0859 3.46277 20.2145 3.54495 20.3232 3.64993C20.4319 3.75491 20.5186 3.88056 20.578 4.01951C20.6374 4.15845 20.6684 4.30788 20.6693 4.45899V21.539C20.6684 21.6878 20.6382 21.835 20.5805 21.9722C20.5227 22.1094 20.4385 22.2338 20.3326 22.3384C20.2268 22.4431 20.1013 22.5258 19.9635 22.5819C19.8257 22.6381 19.6781 22.6665 19.5293 22.6657Z" fill="#FE4D00"/>
<path d="M11.1057 17.1714L7.53238 13.5981C7.42401 13.4698 7.36805 13.3053 7.37569 13.1375C7.38334 12.9697 7.45402 12.811 7.57362 12.6931C7.69321 12.5752 7.85291 12.5068 8.02077 12.5015C8.18863 12.4963 8.3523 12.5545 8.47905 12.6647L11.1057 15.2914L16.8657 9.5314C16.9932 9.42218 17.1573 9.36511 17.3251 9.37159C17.4929 9.37807 17.652 9.44763 17.7708 9.56636C17.8895 9.68509 17.959 9.84425 17.9655 10.012C17.972 10.1798 17.9149 10.3439 17.8057 10.4714L11.1057 17.1714Z" fill="#FE4D00"/>
<path d="M17.3307 7.33335H6.66406V4.88669C6.66582 4.47526 6.83003 4.08118 7.12096 3.79025C7.41189 3.49933 7.80597 3.33511 8.2174 3.33335H9.41073C9.5576 2.75974 9.8912 2.25133 10.3589 1.88826C10.8267 1.52519 11.4019 1.32812 11.9941 1.32812C12.5862 1.32812 13.1614 1.52519 13.6292 1.88826C14.0969 2.25133 14.4305 2.75974 14.5774 3.33335H15.7707C16.1833 3.33335 16.5791 3.49679 16.8715 3.78791C17.1638 4.07902 17.329 4.47411 17.3307 4.88669V7.33335ZM7.9974 6.00002H15.9974V4.88669C15.9974 4.82834 15.9742 4.77238 15.933 4.73112C15.8917 4.68987 15.8357 4.66669 15.7774 4.66669H13.3307V4.00002C13.3307 3.6464 13.1903 3.30726 12.9402 3.05721C12.6902 2.80716 12.351 2.66669 11.9974 2.66669C11.6438 2.66669 11.3046 2.80716 11.0546 3.05721C10.8045 3.30726 10.6641 3.6464 10.6641 4.00002V4.66669H8.2174C8.18851 4.66669 8.1599 4.67238 8.13321 4.68343C8.10651 4.69449 8.08226 4.71069 8.06183 4.73112C8.0414 4.75155 8.0252 4.7758 8.01414 4.8025C8.00309 4.82919 7.9974 4.8578 7.9974 4.88669V6.00002Z" fill="#FE4D00"/>
</g>
<defs>
<clipPath id="clip0_3721_6784">
<rect width="24" height="24" fill="white"/>
</clipPath>
</defs>
</svg>
