<svg width="16" height="16" viewBox="0 0 16 16" fill="none" xmlns="http://www.w3.org/2000/svg">
<path fill-rule="evenodd" clip-rule="evenodd" d="M11.3333 3.33203V2.66536C11.3333 2.31174 11.1929 1.9726 10.9428 1.72256C10.6928 1.47251 10.3536 1.33203 10 1.33203H6C5.64638 1.33203 5.30724 1.47251 5.05719 1.72256C4.80714 1.9726 4.66667 2.31174 4.66667 2.66536V3.33203H2.66667C2.48986 3.33203 2.32029 3.40227 2.19526 3.52729C2.07024 3.65232 2 3.82189 2 3.9987C2 4.17551 2.07024 4.34508 2.19526 4.4701C2.32029 4.59513 2.48986 4.66536 2.66667 4.66536H3.33333V11.9987C3.33333 12.5291 3.54405 13.0378 3.91912 13.4129C4.29419 13.788 4.8029 13.9987 5.33333 13.9987H10.6667C11.1971 13.9987 11.7058 13.788 12.0809 13.4129C12.456 13.0378 12.6667 12.5291 12.6667 11.9987V4.66536H13.3333C13.5101 4.66536 13.6797 4.59513 13.8047 4.4701C13.9298 4.34508 14 4.17551 14 3.9987C14 3.82189 13.9298 3.65232 13.8047 3.52729C13.6797 3.40227 13.5101 3.33203 13.3333 3.33203H11.3333ZM10 2.66536H6V3.33203H10V2.66536ZM11.3333 4.66536H4.66667V11.9987C4.66667 12.1755 4.7369 12.3451 4.86193 12.4701C4.98695 12.5951 5.15652 12.6654 5.33333 12.6654H10.6667C10.8435 12.6654 11.013 12.5951 11.1381 12.4701C11.2631 12.3451 11.3333 12.1755 11.3333 11.9987V4.66536Z" fill="#FE4D00"/>
<path d="M6 6H7.33333V11.3333H6V6ZM8.66667 6H10V11.3333H8.66667V6Z" fill="#FE4D00"/>
</svg>
