<svg width="48" height="48" viewBox="0 0 48 48" fill="none" xmlns="http://www.w3.org/2000/svg">
<path d="M38.1016 9.82012C36.268 7.96797 34.0839 6.49945 31.6768 5.50022C29.2698 4.50099 26.6878 3.99104 24.0816 4.00012C13.1616 4.00012 4.26156 12.9001 4.26156 23.8201C4.26156 27.3201 5.18156 30.7201 6.90156 33.7201L4.10156 44.0001L14.6016 41.2401C17.5016 42.8201 20.7616 43.6601 24.0816 43.6601C35.0016 43.6601 43.9016 34.7601 43.9016 23.8401C43.9016 18.5401 41.8416 13.5601 38.1016 9.82012ZM24.0816 40.3001C21.1216 40.3001 18.2216 39.5001 15.6816 38.0001L15.0816 37.6401L8.84156 39.2801L10.5016 33.2001L10.1016 32.5801C8.45705 29.9541 7.58384 26.9186 7.58156 23.8201C7.58156 14.7401 14.9816 7.34012 24.0616 7.34012C28.4616 7.34012 32.6016 9.06012 35.7016 12.1801C37.2365 13.708 38.453 15.5254 39.2803 17.527C40.1077 19.5285 40.5296 21.6743 40.5216 23.8401C40.5616 32.9201 33.1616 40.3001 24.0816 40.3001ZM33.1216 27.9801C32.6216 27.7401 30.1816 26.5401 29.7416 26.3601C29.2816 26.2001 28.9616 26.1201 28.6216 26.6001C28.2816 27.1001 27.3416 28.2201 27.0616 28.5401C26.7816 28.8801 26.4816 28.9201 25.9816 28.6601C25.4816 28.4201 23.8816 27.8801 22.0016 26.2001C20.5216 24.8801 19.5416 23.2601 19.2416 22.7601C18.9616 22.2601 19.2016 22.0001 19.4616 21.7401C19.6816 21.5201 19.9616 21.1601 20.2016 20.8801C20.4416 20.6001 20.5416 20.3801 20.7016 20.0601C20.8616 19.7201 20.7816 19.4401 20.6616 19.2001C20.5416 18.9601 19.5416 16.5201 19.1416 15.5201C18.7416 14.5601 18.3216 14.6801 18.0216 14.6601H17.0616C16.7216 14.6601 16.2016 14.7801 15.7416 15.2801C15.3016 15.7801 14.0216 16.9801 14.0216 19.4201C14.0216 21.8601 15.8016 24.2201 16.0416 24.5401C16.2816 24.8801 19.5416 29.8801 24.5016 32.0201C25.6816 32.5401 26.6016 32.8401 27.3216 33.0601C28.5016 33.4401 29.5816 33.3801 30.4416 33.2601C31.4016 33.1201 33.3816 32.0601 33.7816 30.9001C34.2016 29.7401 34.2016 28.7601 34.0616 28.5401C33.9216 28.3201 33.6216 28.2201 33.1216 27.9801Z" fill="#FE4D00"/>
</svg>
