<svg width="24" height="24" viewBox="0 0 24 24" fill="none" xmlns="http://www.w3.org/2000/svg">
<path d="M3.07031 1.26563C2.24531 1.44375 1.64531 1.96406 1.34531 2.76094C1.25156 3.00938 1.24219 3.10781 1.24219 4.5C1.24219 5.90156 1.24688 5.99063 1.34531 6.24375C1.60313 6.92344 2.08125 7.39688 2.76094 7.65469C3.00938 7.74844 3.10781 7.75781 4.5 7.75781C5.89219 7.75781 5.99063 7.74844 6.23906 7.65469C7.14844 7.3125 7.69219 6.58594 7.76719 5.61094L7.79531 5.25L14.0109 5.25938C19.3078 5.27344 20.2547 5.2875 20.4141 5.34375C20.7047 5.44688 21.0703 5.84063 21.1594 6.14063C21.2719 6.51094 21.2719 9.98906 21.1594 10.3594C21.0703 10.6641 20.7 11.0578 20.4141 11.1516C20.3109 11.1844 19.9219 11.2219 19.5469 11.2359L18.8672 11.2641L19.275 10.8375C19.8234 10.2703 19.9031 9.97031 19.6266 9.55781C19.4344 9.26719 18.9656 9.14063 18.6656 9.3C18.5953 9.3375 18.0281 9.88125 17.4047 10.5094C15.8203 12.1031 15.8203 11.8969 17.4047 13.4906C18.0281 14.1188 18.5953 14.6625 18.6656 14.7C18.9656 14.8594 19.4344 14.7328 19.6266 14.4422C19.9031 14.0297 19.8188 13.7156 19.275 13.1625L18.8719 12.75H19.6453C20.1844 12.75 20.5031 12.7266 20.6953 12.6797C21.6938 12.4219 22.5 11.5828 22.7109 10.5703C22.8094 10.0922 22.8094 6.40781 22.7109 5.92969C22.5 4.91719 21.6938 4.07813 20.6953 3.82031C20.4516 3.75938 19.6031 3.75 14.1047 3.75H7.79531L7.76719 3.38438C7.69219 2.41406 7.14375 1.68281 6.23906 1.34531C6 1.25625 5.86406 1.24688 4.61719 1.2375C3.87188 1.22813 3.17344 1.24219 3.07031 1.26563ZM5.8125 2.86875C5.96719 2.94844 6.05156 3.03281 6.13125 3.1875C6.22969 3.38438 6.23438 3.44531 6.23438 4.5C6.23438 5.55469 6.22969 5.61563 6.13125 5.8125C6.05156 5.96719 5.96719 6.05156 5.8125 6.12656C5.61563 6.22969 5.55469 6.23438 4.5 6.23438C3.44531 6.23438 3.38438 6.22969 3.1875 6.12656C3.03281 6.05156 2.94844 5.96719 2.87344 5.8125C2.77031 5.61563 2.76563 5.55469 2.76563 4.5C2.76563 3.44531 2.77031 3.38438 2.87344 3.1875C2.94844 3.03281 3.03281 2.94844 3.1875 2.86875C3.38438 2.77031 3.44531 2.76563 4.5 2.76563C5.55469 2.76563 5.61563 2.77031 5.8125 2.86875Z" fill="black"/>
<path d="M10.5738 8.76449C9.51445 8.98949 8.8207 9.79106 8.73633 10.8832L8.7082 11.2489H6.11602H3.52383L3.15352 11.3661C2.22539 11.6614 1.49414 12.4676 1.29258 13.4286C1.19414 13.9067 1.19414 17.5911 1.29258 18.0692C1.50352 19.0817 2.30977 19.9207 3.3082 20.1786C3.54727 20.2395 4.18945 20.2489 7.87383 20.2489H12.1676L11.7598 20.6567C11.5395 20.8864 11.3332 21.1161 11.3051 21.1723C11.216 21.3457 11.2441 21.7442 11.352 21.9223C11.5395 22.227 12.0129 22.3536 12.3457 22.1895C12.552 22.0864 14.5676 20.0801 14.6801 19.8645C14.7926 19.6442 14.7926 19.3536 14.6801 19.1332C14.5676 18.9176 12.552 16.9114 12.3457 16.8082C12.0129 16.6442 11.5395 16.7707 11.352 17.0754C11.2441 17.2536 11.216 17.652 11.3051 17.8254C11.3332 17.8817 11.5395 18.1114 11.7645 18.3411L12.1676 18.7536L7.97227 18.7348C4.46133 18.7254 3.74414 18.7114 3.58945 18.6551C3.29883 18.552 2.9332 18.1582 2.84414 17.8582C2.73164 17.4879 2.73164 14.0098 2.84414 13.6395C2.9332 13.3395 3.29883 12.9457 3.58945 12.8426C3.73945 12.7911 4.25977 12.7723 6.24258 12.7629L8.7082 12.7442L8.73633 13.1098C8.81133 14.0848 9.35508 14.8114 10.2645 15.1536C10.5129 15.2473 10.6113 15.2567 12.0035 15.2567C13.3957 15.2567 13.4941 15.2473 13.7426 15.1536C14.4223 14.8957 14.9004 14.4223 15.1582 13.7426C15.2566 13.4895 15.2613 13.4004 15.2613 11.9989C15.2613 10.5973 15.2566 10.5082 15.1582 10.2551C14.9004 9.57543 14.4176 9.09731 13.7426 8.84418C13.5035 8.75512 13.3676 8.74574 12.1207 8.73637C11.3754 8.72699 10.677 8.74106 10.5738 8.76449ZM13.316 10.3676C13.4707 10.4473 13.5551 10.5317 13.6348 10.6864C13.7332 10.8832 13.7379 10.9442 13.7379 11.9989C13.7379 13.0536 13.7332 13.1145 13.6348 13.3114C13.5551 13.4661 13.4707 13.5504 13.316 13.6254C13.1191 13.7286 13.0582 13.7332 12.0035 13.7332C10.9488 13.7332 10.8879 13.7286 10.691 13.6254C10.5363 13.5504 10.452 13.4661 10.377 13.3114C10.2738 13.1145 10.2691 13.0536 10.2691 11.9989C10.2691 10.9442 10.2738 10.8832 10.377 10.6864C10.452 10.5317 10.5363 10.4473 10.691 10.3676C10.8879 10.2692 10.9488 10.2645 12.0035 10.2645C13.0582 10.2645 13.1191 10.2692 13.316 10.3676Z" fill="black"/>
<path d="M18.0703 16.2656C17.2453 16.4438 16.6453 16.9641 16.3453 17.7609C16.2516 18.0094 16.2422 18.1078 16.2422 19.5C16.2422 20.9016 16.2469 20.9906 16.3453 21.2438C16.6031 21.9234 17.0813 22.3969 17.7609 22.6547C18.0094 22.7484 18.1078 22.7578 19.5 22.7578C20.8922 22.7578 20.9906 22.7484 21.2391 22.6547C21.9188 22.3969 22.3969 21.9234 22.6547 21.2438C22.7531 20.9906 22.7578 20.9016 22.7578 19.5C22.7578 18.0984 22.7531 18.0094 22.6547 17.7563C22.3969 17.0766 21.9141 16.5984 21.2391 16.3453C21 16.2563 20.8641 16.2469 19.6172 16.2375C18.8719 16.2281 18.1734 16.2422 18.0703 16.2656ZM20.8125 17.8688C20.9672 17.9484 21.0516 18.0328 21.1313 18.1875C21.2297 18.3844 21.2344 18.4453 21.2344 19.5C21.2344 20.5547 21.2297 20.6156 21.1313 20.8125C21.0516 20.9672 20.9672 21.0516 20.8125 21.1313C20.6156 21.2297 20.5547 21.2344 19.5 21.2344C18.4453 21.2344 18.3844 21.2297 18.1875 21.1266C18.0328 21.0516 17.9484 20.9672 17.8734 20.8125C17.7703 20.6156 17.7656 20.5547 17.7656 19.5C17.7656 18.4453 17.7703 18.3844 17.8734 18.1875C17.9484 18.0328 18.0328 17.9484 18.1875 17.8688C18.3844 17.7703 18.4453 17.7656 19.5 17.7656C20.5547 17.7656 20.6156 17.7703 20.8125 17.8688Z" fill="black"/>
</svg>
